<svg viewBox="0 0 18 18" xmlns="http://www.w3.org/2000/svg"><g fill="none" fill-rule="evenodd"><path d="M17.64 9.204c0-.638-.057-1.251-.164-1.84H9v3.481h4.844a4.14 4.14 0 0 1-1.796 2.716v2.259h2.908c1.702-1.567 2.684-3.875 2.684-6.615z" fill="#4285F4"/><path d="M9 18c2.43 0 4.467-.806 5.956-2.18l-2.908-2.259c-.806.54-1.837.86-3.048.86-2.344 0-4.328-1.584-5.036-3.711H.957v2.332A8.996 8.996 0 0 0 9 18z" fill="#34A853"/><path d="M3.964 10.71c-.18-.54-.282-1.117-.282-1.71s.102-1.17.282-1.71V4.958H.957A8.996 8.996 0 0 0 0 9c0 1.452.348 2.827.957 4.042l3.007-2.332z" fill="#FBBC05"/><path d="M9 3.58c1.321 0 2.508.454 3.44 1.345l2.582-2.581C13.463.892 11.426 0 9 0A8.996 8.996 0 0 0 .957 4.958L3.964 7.29C4.672 5.163 6.656 3.58 9 3.58z" fill="#EA4335"/><path d="M0 0h18v18H0z"/></g></svg>